<svg role="presentation" xmlns="http://www.w3.org/2000/svg" viewBox="0 0 2790 337"><g fill="#373A36" fill-rule="nonzero"><path d="M2758.54 54.6a30.11 30.11 0 11-.17 60.21c-17.29 0-31.18-13.36-31.18-30.28 0-16.57 13.89-29.93 31.18-29.93h.17zm-.53 7c-12.64 0-22.28 10.15-22.28 23.15 0 12.84 9.64 23.17 22.45 23.17 12.83.18 22.28-10.33 22.28-23.17 0-13-9.45-23.15-22.28-23.15h-.17zm-3.93 37.95h-8V70.84a56.19 56.19 0 0111.92-1.1c6 0 8.75.89 10.69 2.32a6.79 6.79 0 013 6.06c0 3.2-2.68 5.69-6.24 6.77v.35c3 1.07 4.63 3.38 5.52 7.31a34.16 34.16 0 002 6.95h-8.55c-.89-1.08-1.42-3.57-2.12-6.6-.7-3.03-2.16-4.28-5.36-4.28h-2.86v10.93zm.18-16.39h2.86c3.38 0 5.88-1.25 5.88-3.93 0-2.49-1.78-3.92-5.52-3.92-1.42 0-2.49.18-3.22.18v7.67zM.62 21.04c21.92-3.73 52.71-6.52 96.08-6.52 43.84 0 75.09 8.39 96.08 25.18 20.06 15.85 33.59 42 33.59 72.76 0 30.76-10.27 56.91-28.92 74.63-24.26 22.85-60.17 33.12-102.15 33.12a179.38 179.38 0 01-24.25-1.4v112.4H.62V21.04zm70.43 142.73c6.06 1.4 13.53 1.86 23.79 1.86 37.77 0 61.1-19.12 61.1-51.3 0-28.92-20.06-46.18-55.5-46.18-14.47 0-24.26 1.4-29.39 2.8v92.82z"/><path d="M448.36 214.61c0 83.48-59.23 121.73-120.33 121.73-66.7 0-118-43.84-118-117.53S258.54 98 331.77 98c69.96 0 116.59 48.05 116.59 116.61zm-165.11 2.33c0 39.18 16.32 68.56 46.65 68.56 27.52 0 45.24-27.52 45.24-68.56 0-34-13.06-68.57-45.24-68.57-34.05 0-46.65 34.98-46.65 68.57zM546.75 39.7c0 19.59-14.92 35.45-38.24 35.45-22.39 0-37.31-15.86-36.85-35.45C471.2 19.18 486.12 3.84 509 3.84c22.88 0 37.3 15.34 37.75 35.86zm-73.22 291.51V103.13h70.9v228.08h-70.9zm109.13-155.32c0-28.44-.93-52.7-1.86-72.76h61.56l3.26 31.25H647C656.33 119.92 679.65 98 717.43 98c46.65 0 81.62 30.78 81.62 98v135.21h-70.87V204.84c0-29.38-10.25-49.44-35.91-49.44-19.6 0-31.26 13.53-35.92 26.59-1.87 4.66-2.8 11.19-2.8 17.73v131.49h-70.89V175.89zM913.8 41.1v62h50.84v52.24H913.8v82.55c0 27.53 6.53 40.11 28 40.11 9.79 0 14-.45 21-1.86l.47 53.64c-9.34 3.73-26.12 6.53-46.18 6.53-22.86 0-42-8.4-53.17-20.05-13.09-13.5-19.62-35.42-19.62-67.6v-93.29H814v-52.24h30.3V60.22l69.5-19.12zm306.41 281.25c-13.06 6.53-42.44 14-80.69 14-108.67 0-164.65-68.1-164.65-157.64 0-107.28 76.5-167 171.65-167 36.85 0 64.82 7.47 77.43 14l-14.46 56.43a153.65 153.65 0 00-59.7-11.66c-56.44 0-100.28 34.05-100.28 104 0 63 37.31 102.61 100.74 102.61 21.45 0 45.25-4.65 59.24-10.26l10.72 55.52zM1244.44.06h70.9v331.15h-70.9zm182.82 39.64c0 19.59-14.92 35.45-38.24 35.45-22.38 0-37.31-15.86-36.84-35.45-.47-20.52 14.46-35.91 37.31-35.91s37.3 15.39 37.77 35.91zM1354 331.21V103.13h70.89v228.08H1354zm280.34-5.6c-12.6 5.6-36.37 10.73-63.44 10.73-73.68 0-120.8-45.24-120.8-117.07 0-66.7 45.71-121.27 130.6-121.27 18.65 0 39.18 3.27 54.1 8.87l-11.18 52.7c-8.41-3.73-21-7-39.66-7-37.31 0-61.56 26.59-61.09 63.9 0 42 28 63.9 62.49 63.9 16.8 0 29.85-2.79 40.57-7.46l8.41 52.7zm91.39-126.4h.94c5.14-9.33 10.72-18.65 16.31-27.52l46.2-68.56h85.33l-81.61 92.35 93.29 135.73H1799l-55-93.75-18.27 22.38v71.35h-70.89V.06h70.89v199.15z"/><path d="M2122.17 322.35c-13.06 6.53-42.43 14-80.69 14-108.68 0-164.65-68.1-164.65-157.64 0-107.28 76.5-167 171.64-167 36.86 0 64.83 7.47 77.44 14l-14.47 56.43a153.61 153.61 0 00-59.7-11.66c-56.43 0-100.27 34.05-100.27 104 0 63 37.31 102.61 100.73 102.61 21.46 0 45.26-4.65 59.24-10.26l10.73 55.52zm211.27-46.64c0 21.91.93 42.92 3.26 55.5h-63.92l-4.18-22.85h-1.41c-14.92 18.18-38.24 28-65.3 28-46.17 0-73.69-33.58-73.69-70 0-59.24 53.17-87.68 133.86-87.22v-3.27c0-12.12-6.52-29.38-41.5-29.38-23.32 0-48 7.93-63 17.26l-13.07-45.71c15.86-8.86 47.12-20.06 88.62-20.06 76 0 100.3 44.78 100.3 98.42l.03 79.31zm-69-52.24c-37.31-.47-66.23 8.4-66.23 35.91 0 18.2 12.13 27.07 28 27.07 17.73 0 32.16-11.68 36.84-26.13a51.53 51.53 0 001.4-12.13l-.01-24.72zm106.26-45.24c0-33.58-.92-55.51-1.85-75.1H2430l2.34 42h1.86c11.65-33.12 39.64-47.11 61.56-47.11 6.53 0 9.79 0 14.94.94v67.16a71.33 71.33 0 00-19.13-2.33c-26.12 0-43.84 14-48.51 35.92a83.64 83.64 0 00-1.4 15.86v115.64h-70.96V178.23zm209.42 61.61c2.33 29.38 31.25 43.39 64.37 43.39 24.25 0 43.83-3.27 63-9.34l9.31 48.05c-23.3 9.32-51.76 14.45-82.54 14.45-77.44 0-121.74-45.24-121.74-116.6 0-57.83 35.92-121.74 115.21-121.74 73.68 0 101.67 57.37 101.67 113.8 0 9.382-.781 18.747-2.33 28l-146.95-.01zm83.5-48.51c0-17.25-7.48-46.17-40.12-46.17-29.85 0-42 27-43.85 46.17h83.97z"/></g></svg>