<?xml version="1.0" encoding="utf-8"?>
<svg xmlns="http://www.w3.org/2000/svg" fill="none" viewBox="0 0 240 133">
  <path fill="#fff" d="M0 0h240v133H0z"/>
  <path fill="#00d639" d="M67.4 28.6c8.5 0 15.4 5.8 15.5 14 0 2.2-1.6 3.5-3.4 3.5-1.7 0-3.2-1.3-3.3-3.4 0-4.6-4-8-8.8-8-4.6 0-8 3.2-8 7.7 0 4.8 3.2 6.9 9.9 9.3C76.4 54.3 83 57.4 83 66.6c0 8-6.2 14.3-15 14.3-8.4 0-15.5-6-15.5-14 0-5.1 2.5-8.7 4.9-8.7 2 0 3.3 1.4 3.3 3.2 0 1.5-1.4 2.3-1.4 5.1 0 5 4.1 8.3 8.8 8.3 4.9 0 8.1-3.4 8.1-7.5 0-5-3.2-7.2-10-9.6-7.4-2.6-13.7-5.9-13.7-14.8 0-8 6.5-14.3 15-14.3zM101.9 81a15.6 15.6 0 1 1 .2-31.3c9.3 0 15.9 7 15.9 16.4v11.5c0 2-1.6 3.3-3.4 3.3-2 0-3.5-1.3-3.5-3.3V66.3c0-6.2-3.5-10.5-9.1-10.5-5 0-9 4.2-9 9.6 0 5 4 9.2 8.8 9.2 1.8 0 2.6-.4 3.7-.4a3 3 0 0 1 3 3c0 2.5-2.8 3.7-6.6 3.7zm35.5 23.4c-8.8 0-16.2-6.3-16.2-14.5 0-2.7 1.6-4 3.4-4s3.3 1.2 3.4 3.5a9 9 0 0 0 9.3 8.9c5.5 0 9-3.5 9-8 0-5.1-4-7.2-10.6-9.4-7.8-2.5-14.5-6-14.5-15.6 0-8.8 6.8-15.6 15.7-15.6 8.9 0 16.2 6.5 16.2 15 0 5.2-2.1 9.2-5 9.2-2 0-3.4-1.4-3.4-3.1 0-1.9 1.6-2.6 1.6-5.9 0-5.4-4.2-9-9.4-9-5 0-8.9 3.7-8.9 8.7 0 5.6 4 8 10.7 10.2 7.6 2.5 14.4 5.7 14.4 14.9 0 8.3-6.5 14.7-15.7 14.7zM172.5 81c-8.9 0-16.1-7-16.1-15.7s7-15.6 15.7-15.6 15.4 6 15.4 13.8c0 3-2.2 4.8-5.6 4.8h-9.1c-1.8 0-3.2-1.2-3.2-2.9 0-1.6 1.4-2.8 3.2-2.8h6.8c.6 0 1-.4 1-1 0-2.3-2.8-5.8-8.3-5.8-5 0-9.1 4.3-9.1 9.5 0 5.3 4.1 9.5 9.4 9.5 6 0 8-3.6 10.4-3.6 2 0 3.1 1.4 3.1 2.9 0 1.4-1 2.7-3.3 4.2-2.4 1.5-6 2.6-10.3 2.6z"/>
</svg>